<?xml version="1.0" encoding="UTF-8"?>
<svg width="341px" height="281px" viewBox="0 0 341 281" version="1.1" xmlns="http://www.w3.org/2000/svg" xmlns:xlink="http://www.w3.org/1999/xlink">
    <!-- Generator: Sketch 52.1 (67048) - http://www.bohemiancoding.com/sketch -->
    <title>Group</title>
    <desc>Created with Sketch.</desc>
    <defs>
        <filter x="-5.5%" y="-8.7%" width="111.1%" height="117.4%" filterUnits="objectBoundingBox" id="filter-1">
            <feOffset dx="0" dy="2" in="SourceAlpha" result="shadowOffsetOuter1"></feOffset>
            <feGaussianBlur stdDeviation="2" in="shadowOffsetOuter1" result="shadowBlurOuter1"></feGaussianBlur>
            <feColorMatrix values="0 0 0 0 0   0 0 0 0 0   0 0 0 0 0  0 0 0 0.5 0" type="matrix" in="shadowBlurOuter1" result="shadowMatrixOuter1"></feColorMatrix>
            <feMerge>
                <feMergeNode in="shadowMatrixOuter1"></feMergeNode>
                <feMergeNode in="SourceGraphic"></feMergeNode>
            </feMerge>
        </filter>
        <filter x="-3.8%" y="-5.4%" width="107.6%" height="110.8%" filterUnits="objectBoundingBox" id="filter-2">
            <feOffset dx="0" dy="2" in="SourceAlpha" result="shadowOffsetOuter1"></feOffset>
            <feGaussianBlur stdDeviation="2" in="shadowOffsetOuter1" result="shadowBlurOuter1"></feGaussianBlur>
            <feColorMatrix values="0 0 0 0 0   0 0 0 0 0   0 0 0 0 0  0 0 0 0.5 0" type="matrix" in="shadowBlurOuter1" result="shadowMatrixOuter1"></feColorMatrix>
            <feMerge>
                <feMergeNode in="shadowMatrixOuter1"></feMergeNode>
                <feMergeNode in="SourceGraphic"></feMergeNode>
            </feMerge>
        </filter>
    </defs>
    <g id="Page-1" stroke="none" stroke-width="1" fill="none" fill-rule="evenodd">
        <g id="Desktop" transform="translate(-311.000000, -372.000000)" fill="#FFFFFF">
            <g id="Group" transform="translate(315.000000, 374.000000)">
                <g id="cloud" filter="url(#filter-1)">
                    <path d="M96.875,138 L42.024375,138 C18.851875,138 0,119.350833 0,96.4236667 C0,80.5 10.481875,63.9706667 24.927875,57.1205 L27.125,56.0816667 L27.125,53.6666667 C27.125,53.1798333 27.156,52.6853333 27.183125,52.187 L27.218,51.5736667 L27.1715,50.7686667 C27.14825,50.4581667 27.125,50.1476667 27.125,49.8333333 C27.125,35.0405 39.296375,23 54.25,23 C55.447375,23 56.62925,23.1035 57.803375,23.2568333 C58.105625,23.2951667 58.407875,23.345 58.70625,23.3948333 C59.740875,23.5635 60.76,23.7858333 61.763625,24.0733333 C61.89925,24.1116667 62.03875,24.1385 62.174375,24.1768333 C63.27875,24.5103333 64.356,24.932 65.41,25.4073333 C65.685125,25.53 65.9525,25.6641667 66.22375,25.7945 C67.15375,26.2506667 68.064375,26.749 68.944,27.3125 C76.411125,32.0965 81.375,40.3956667 81.375,49.8333333 C81.375,51.9531667 83.107125,53.6666667 85.25,53.6666667 C87.392875,53.6666667 89.125,51.9531667 89.125,49.8333333 C89.125,39.2763333 84.29675,29.8271667 76.725,23.4945 C87.834625,9.1195 106.1285,0 124.329375,0 C154.34125,0 179.26525,23.5175 181.865375,53.2373333 C177.905125,52.9613333 171.976375,52.8195 166.04375,53.7126667 C163.928,54.0308333 162.474875,55.9858333 162.7965,58.0788333 C163.087125,59.9763333 164.737875,61.3371667 166.621125,61.3371667 C166.814875,61.3371667 167.0125,61.3218333 167.20625,61.2911667 C175.835875,59.9993333 184.82975,61.2106667 185.35675,61.2835 C203.39875,64.676 217,81.1171667 217,99.5593333 C217,120.753833 199.566375,138 178.1415,138 L127.875,138 L96.875,138 Z" id="Path"></path>
                </g>
                <g id="cloud" filter="url(#filter-2)" transform="translate(19.000000, 50.000000)">
                    <path d="M140.178571,223 L60.8094643,223 C27.27875,223 0,192.864028 0,155.815056 C0,130.083333 15.1673214,103.372889 36.07075,92.3034167 L39.25,90.6247222 L39.25,86.7222222 C39.25,85.9355278 39.2948571,85.1364444 39.3341071,84.3311667 L39.3845714,83.3400556 L39.3172857,82.0392222 C39.2836429,81.5374722 39.25,81.0357222 39.25,80.5277778 C39.25,56.6234167 56.8620357,37.1666667 78.5,37.1666667 C80.2326071,37.1666667 81.9427857,37.3339167 83.64175,37.5816944 C84.0791071,37.6436389 84.5164643,37.7241667 84.9482143,37.8046944 C86.4453214,38.07725 87.92,38.4365278 89.37225,38.9011111 C89.5685,38.9630556 89.7703571,39.0064167 89.9666071,39.0683611 C91.5646429,39.6072778 93.1234286,40.2886667 94.6485714,41.0567778 C95.0466786,41.255 95.4335714,41.4718056 95.8260714,41.6824167 C97.1717857,42.4195556 98.4894643,43.2248333 99.7622857,44.1354167 C110.56725,51.8660833 117.75,65.2770556 117.75,80.5277778 C117.75,83.9533056 120.256393,86.7222222 123.357143,86.7222222 C126.457893,86.7222222 128.964286,83.9533056 128.964286,80.5277778 C128.964286,63.4682778 121.977786,48.1989722 111.021429,37.96575 C127.097107,14.7365833 153.568429,0 179.905179,0 C223.3325,0 259.397643,38.0029167 263.160036,86.0284444 C257.429536,85.5824444 248.850607,85.35325 240.266071,86.7965556 C237.204571,87.3106944 235.101893,90.4698611 235.567286,93.8520278 C235.987821,96.9182778 238.376464,99.1173056 241.101536,99.1173056 C241.381893,99.1173056 241.667857,99.0925278 241.948214,99.0429722 C254.435321,96.9554444 267.4495,98.9128889 268.212071,99.0305833 C294.318929,104.512667 314,131.080639 314,160.882111 C314,195.131194 288.773464,223 257.771571,223 L185.035714,223 L140.178571,223 Z" id="Path"></path>
                </g>
            </g>
        </g>
    </g>
</svg>