<?xml version="1.0" encoding="UTF-8"?>
<svg width="442px" height="369px" viewBox="0 0 442 369" version="1.1" xmlns="http://www.w3.org/2000/svg" xmlns:xlink="http://www.w3.org/1999/xlink">
    <!-- Generator: Sketch 52.1 (67048) - http://www.bohemiancoding.com/sketch -->
    <title>Group 2</title>
    <desc>Created with Sketch.</desc>
    <defs>
        <filter x="-3.9%" y="-3.9%" width="107.8%" height="107.9%" filterUnits="objectBoundingBox" id="filter-1">
            <feOffset dx="0" dy="2" in="SourceAlpha" result="shadowOffsetOuter1"></feOffset>
            <feGaussianBlur stdDeviation="2" in="shadowOffsetOuter1" result="shadowBlurOuter1"></feGaussianBlur>
            <feColorMatrix values="0 0 0 0 0   0 0 0 0 0   0 0 0 0 0  0 0 0 0.5 0" type="matrix" in="shadowBlurOuter1" result="shadowMatrixOuter1"></feColorMatrix>
            <feMerge>
                <feMergeNode in="shadowMatrixOuter1"></feMergeNode>
                <feMergeNode in="SourceGraphic"></feMergeNode>
            </feMerge>
        </filter>
        <filter x="-5.5%" y="-8.7%" width="111.1%" height="117.4%" filterUnits="objectBoundingBox" id="filter-2">
            <feOffset dx="0" dy="2" in="SourceAlpha" result="shadowOffsetOuter1"></feOffset>
            <feGaussianBlur stdDeviation="2" in="shadowOffsetOuter1" result="shadowBlurOuter1"></feGaussianBlur>
            <feColorMatrix values="0 0 0 0 0   0 0 0 0 0   0 0 0 0 0  0 0 0 0.5 0" type="matrix" in="shadowBlurOuter1" result="shadowMatrixOuter1"></feColorMatrix>
            <feMerge>
                <feMergeNode in="shadowMatrixOuter1"></feMergeNode>
                <feMergeNode in="SourceGraphic"></feMergeNode>
            </feMerge>
        </filter>
        <filter x="-3.8%" y="-5.4%" width="107.6%" height="110.8%" filterUnits="objectBoundingBox" id="filter-3">
            <feOffset dx="0" dy="2" in="SourceAlpha" result="shadowOffsetOuter1"></feOffset>
            <feGaussianBlur stdDeviation="2" in="shadowOffsetOuter1" result="shadowBlurOuter1"></feGaussianBlur>
            <feColorMatrix values="0 0 0 0 0   0 0 0 0 0   0 0 0 0 0  0 0 0 0.5 0" type="matrix" in="shadowBlurOuter1" result="shadowMatrixOuter1"></feColorMatrix>
            <feMerge>
                <feMergeNode in="shadowMatrixOuter1"></feMergeNode>
                <feMergeNode in="SourceGraphic"></feMergeNode>
            </feMerge>
        </filter>
    </defs>
    <g id="Page-1" stroke="none" stroke-width="1" fill="none" fill-rule="evenodd">
        <g id="Desktop" transform="translate(-311.000000, -284.000000)">
            <g id="Group-2" transform="translate(315.000000, 286.000000)">
                <g id="sunny" filter="url(#filter-1)" transform="translate(126.000000, 0.000000)">
                    <g id="Group" fill="#F0C419">
                        <path d="M154,0 C151.1664,0 148.866667,2.26986667 148.866667,5.06666667 L148.866667,35.4666667 C148.866667,38.2634667 151.1664,40.5333333 154,40.5333333 C156.8336,40.5333333 159.133333,38.2634667 159.133333,35.4666667 L159.133333,5.06666667 C159.133333,2.26986667 156.8336,0 154,0 Z" id="Path"></path>
                        <path d="M154,263.466667 C151.1664,263.466667 148.866667,265.736533 148.866667,268.533333 L148.866667,298.933333 C148.866667,301.730133 151.1664,304 154,304 C156.8336,304 159.133333,301.730133 159.133333,298.933333 L159.133333,268.533333 C159.133333,265.736533 156.8336,263.466667 154,263.466667 Z" id="Path"></path>
                        <path d="M302.866667,146.933333 L272.066667,146.933333 C269.233067,146.933333 266.933333,149.2032 266.933333,152 C266.933333,154.7968 269.233067,157.066667 272.066667,157.066667 L302.866667,157.066667 C305.700267,157.066667 308,154.7968 308,152 C308,149.2032 305.700267,146.933333 302.866667,146.933333 Z" id="Path"></path>
                        <path d="M41.0666667,152 C41.0666667,149.2032 38.7669333,146.933333 35.9333333,146.933333 L5.13333333,146.933333 C2.29973333,146.933333 0,149.2032 0,152 C0,154.7968 2.29973333,157.066667 5.13333333,157.066667 L35.9333333,157.066667 C38.7669333,157.066667 41.0666667,154.7968 41.0666667,152 Z" id="Path"></path>
                        <path d="M237.488533,74.6624 C238.802667,74.6624 240.1168,74.1658667 241.1178,73.1778667 L270.5626,44.1154667 C272.569733,42.1344 272.569733,38.9322667 270.5626,36.9512 C268.555467,34.9701333 265.3112,34.9701333 263.304067,36.9512 L233.859267,66.0136 C231.852133,67.9946667 231.852133,71.1968 233.859267,73.1778667 C234.860267,74.1709333 236.1744,74.6624 237.488533,74.6624 Z" id="Path"></path>
                        <path d="M66.8822,230.822133 L37.4374,259.884533 C35.4302667,261.8656 35.4302667,265.067733 37.4374,267.0488 C38.4384,268.0368 39.7525333,268.533333 41.0666667,268.533333 C42.3808,268.533333 43.6949333,268.0368 44.6959333,267.0488 L74.1407333,237.9864 C76.1478667,236.005333 76.1478667,232.8032 74.1407333,230.822133 C72.1336,228.841067 68.8893333,228.841067 66.8822,230.822133 Z" id="Path"></path>
                        <path d="M241.1178,230.822133 C239.110667,228.841067 235.8664,228.841067 233.859267,230.822133 C231.852133,232.8032 231.852133,236.005333 233.859267,237.9864 L263.304067,267.0488 C264.305067,268.0368 265.6192,268.533333 266.933333,268.533333 C268.247467,268.533333 269.5616,268.0368 270.5626,267.0488 C272.569733,265.067733 272.569733,261.8656 270.5626,259.884533 L241.1178,230.822133 Z" id="Path"></path>
                        <path d="M44.6959333,36.9512 C42.6888,34.9701333 39.4445333,34.9701333 37.4374,36.9512 C35.4302667,38.9322667 35.4302667,42.1344 37.4374,44.1154667 L66.8822,73.1778667 C67.8832,74.1658667 69.1973333,74.6624 70.5114667,74.6624 C71.8256,74.6624 73.1397333,74.1658667 74.1407333,73.1778667 C76.1478667,71.1968 76.1478667,67.9946667 74.1407333,66.0136 L44.6959333,36.9512 Z" id="Path"></path>
                        <path d="M257.955133,108.446933 C258.786733,110.377333 260.686067,111.5376 262.682933,111.5376 C263.350267,111.5376 264.033,111.405867 264.684933,111.132267 L278.8632,105.194133 C281.470933,104.099733 282.692667,101.1256 281.583867,98.5517333 C280.475067,95.9778667 277.456667,94.772 274.854067,95.8664 L260.6758,101.804533 C258.062933,102.898933 256.846333,105.873067 257.955133,108.446933 Z" id="Path"></path>
                        <path d="M50.0448667,195.553067 C48.9360667,192.9792 45.9228,191.773333 43.3150667,192.867733 L29.1368,198.805867 C26.5290667,199.900267 25.3073333,202.8744 26.4161333,205.448267 C27.2477333,207.378667 29.1470667,208.538933 31.1439333,208.538933 C31.8112667,208.538933 32.494,208.4072 33.1459333,208.1336 L47.3242,202.195467 C49.9370667,201.101067 51.1536667,198.126933 50.0448667,195.553067 Z" id="Path"></path>
                        <path d="M279.669133,196.652533 L265.393333,190.952533 C262.7702,189.903733 259.772333,191.160267 258.709733,193.7544 C257.647133,196.348533 258.9202,199.3024 261.548467,200.3512 L275.8294,206.046133 C276.4608,206.2944 277.112733,206.416 277.749267,206.416 C279.782067,206.416 281.707067,205.220267 282.513,203.244267 C283.570467,200.6552 282.302533,197.701333 279.669133,196.652533 Z" id="Path"></path>
                        <path d="M28.3308667,107.352533 L42.6066667,113.047467 C43.2380667,113.295733 43.89,113.417333 44.5265333,113.417333 C46.5593333,113.417333 48.4843333,112.2216 49.2902667,110.2456 C50.3528667,107.651467 49.0798,104.6976 46.4515333,103.6488 L32.1706,97.9538667 C29.5372,96.9050667 26.5496,98.1565333 25.487,100.755733 C24.4295333,103.3448 25.6974667,106.298667 28.3308667,107.352533 Z" id="Path"></path>
                        <path d="M204.855933,257.2904 C203.747133,254.716533 200.733867,253.515733 198.126133,254.605067 C195.5184,255.699467 194.296667,258.6736 195.405467,261.247467 L201.421733,275.2416 C202.253333,277.172 204.152667,278.332267 206.149533,278.332267 C206.816867,278.332267 207.4996,278.200533 208.151533,277.926933 C210.759267,276.832533 211.981,273.8584 210.8722,271.284533 L204.855933,257.2904 Z" id="Path"></path>
                        <path d="M107.871867,49.8002667 C108.5392,49.8002667 109.221933,49.6685333 109.873867,49.3949333 C112.4816,48.3005333 113.703333,45.3264 112.594533,42.7525333 L106.578267,28.7584 C105.4746,26.1794667 102.461333,24.9736 99.8484667,26.0730667 C97.2407333,27.1674667 96.019,30.1416 97.1278,32.7154667 L103.144067,46.7096 C103.970533,48.64 105.875,49.8002667 107.871867,49.8002667 Z" id="Path"></path>
                        <path d="M111.6962,255.349867 C109.073067,254.3112 106.0752,255.552533 105.0126,258.151733 L99.2427333,272.2472 C98.1801333,274.841333 99.4532,277.7952 102.081467,278.844 C102.712867,279.092267 103.3648,279.213867 104.001333,279.213867 C106.034133,279.213867 107.959133,278.018133 108.765067,276.042133 L114.534933,261.946667 C115.597533,259.352533 114.324467,256.398667 111.6962,255.349867 Z" id="Path"></path>
                        <path d="M198.223667,49.02 C200.256467,49.02 202.181467,47.8242667 202.9874,45.8482667 L208.757267,31.7528 C209.819867,29.1586667 208.5468,26.2048 205.918533,25.156 C203.2954,24.1072 200.297533,25.3637333 199.234933,27.9578667 L193.465067,42.0533333 C192.402467,44.6474667 193.675533,47.6013333 196.3038,48.6501333 C196.9352,48.8984 197.587133,49.02 198.223667,49.02 Z" id="Path"></path>
                    </g>
                    <ellipse id="Oval" fill="#F0C419" cx="154.5" cy="152.5" rx="102.5" ry="101.5"></ellipse>
                    <ellipse id="Oval" fill="#EDE21B" cx="154" cy="152" rx="77" ry="76"></ellipse>
                </g>
                <g id="Group" transform="translate(0.000000, 88.000000)" fill="#FFFFFF">
                    <g id="cloud" filter="url(#filter-2)">
                        <path d="M96.875,138 L42.024375,138 C18.851875,138 0,119.350833 0,96.4236667 C0,80.5 10.481875,63.9706667 24.927875,57.1205 L27.125,56.0816667 L27.125,53.6666667 C27.125,53.1798333 27.156,52.6853333 27.183125,52.187 L27.218,51.5736667 L27.1715,50.7686667 C27.14825,50.4581667 27.125,50.1476667 27.125,49.8333333 C27.125,35.0405 39.296375,23 54.25,23 C55.447375,23 56.62925,23.1035 57.803375,23.2568333 C58.105625,23.2951667 58.407875,23.345 58.70625,23.3948333 C59.740875,23.5635 60.76,23.7858333 61.763625,24.0733333 C61.89925,24.1116667 62.03875,24.1385 62.174375,24.1768333 C63.27875,24.5103333 64.356,24.932 65.41,25.4073333 C65.685125,25.53 65.9525,25.6641667 66.22375,25.7945 C67.15375,26.2506667 68.064375,26.749 68.944,27.3125 C76.411125,32.0965 81.375,40.3956667 81.375,49.8333333 C81.375,51.9531667 83.107125,53.6666667 85.25,53.6666667 C87.392875,53.6666667 89.125,51.9531667 89.125,49.8333333 C89.125,39.2763333 84.29675,29.8271667 76.725,23.4945 C87.834625,9.1195 106.1285,0 124.329375,0 C154.34125,0 179.26525,23.5175 181.865375,53.2373333 C177.905125,52.9613333 171.976375,52.8195 166.04375,53.7126667 C163.928,54.0308333 162.474875,55.9858333 162.7965,58.0788333 C163.087125,59.9763333 164.737875,61.3371667 166.621125,61.3371667 C166.814875,61.3371667 167.0125,61.3218333 167.20625,61.2911667 C175.835875,59.9993333 184.82975,61.2106667 185.35675,61.2835 C203.39875,64.676 217,81.1171667 217,99.5593333 C217,120.753833 199.566375,138 178.1415,138 L127.875,138 L96.875,138 Z" id="Path"></path>
                    </g>
                    <g id="cloud" filter="url(#filter-3)" transform="translate(19.000000, 50.000000)">
                        <path d="M140.178571,223 L60.8094643,223 C27.27875,223 0,192.864028 0,155.815056 C0,130.083333 15.1673214,103.372889 36.07075,92.3034167 L39.25,90.6247222 L39.25,86.7222222 C39.25,85.9355278 39.2948571,85.1364444 39.3341071,84.3311667 L39.3845714,83.3400556 L39.3172857,82.0392222 C39.2836429,81.5374722 39.25,81.0357222 39.25,80.5277778 C39.25,56.6234167 56.8620357,37.1666667 78.5,37.1666667 C80.2326071,37.1666667 81.9427857,37.3339167 83.64175,37.5816944 C84.0791071,37.6436389 84.5164643,37.7241667 84.9482143,37.8046944 C86.4453214,38.07725 87.92,38.4365278 89.37225,38.9011111 C89.5685,38.9630556 89.7703571,39.0064167 89.9666071,39.0683611 C91.5646429,39.6072778 93.1234286,40.2886667 94.6485714,41.0567778 C95.0466786,41.255 95.4335714,41.4718056 95.8260714,41.6824167 C97.1717857,42.4195556 98.4894643,43.2248333 99.7622857,44.1354167 C110.56725,51.8660833 117.75,65.2770556 117.75,80.5277778 C117.75,83.9533056 120.256393,86.7222222 123.357143,86.7222222 C126.457893,86.7222222 128.964286,83.9533056 128.964286,80.5277778 C128.964286,63.4682778 121.977786,48.1989722 111.021429,37.96575 C127.097107,14.7365833 153.568429,0 179.905179,0 C223.3325,0 259.397643,38.0029167 263.160036,86.0284444 C257.429536,85.5824444 248.850607,85.35325 240.266071,86.7965556 C237.204571,87.3106944 235.101893,90.4698611 235.567286,93.8520278 C235.987821,96.9182778 238.376464,99.1173056 241.101536,99.1173056 C241.381893,99.1173056 241.667857,99.0925278 241.948214,99.0429722 C254.435321,96.9554444 267.4495,98.9128889 268.212071,99.0305833 C294.318929,104.512667 314,131.080639 314,160.882111 C314,195.131194 288.773464,223 257.771571,223 L185.035714,223 L140.178571,223 Z" id="Path"></path>
                    </g>
                </g>
            </g>
        </g>
    </g>
</svg>