<?xml version="1.0" encoding="UTF-8"?>
<svg width="146px" height="196px" viewBox="0 0 146 196" version="1.1" xmlns="http://www.w3.org/2000/svg" xmlns:xlink="http://www.w3.org/1999/xlink">
    <!-- Generator: Sketch 51.2 (57519) - http://www.bohemiancoding.com/sketch -->
    <title>Group</title>
    <desc>Created with Sketch.</desc>
    <defs></defs>
    <g id="Welcome" stroke="none" stroke-width="1" fill="none" fill-rule="evenodd">
        <g id="Desktop" transform="translate(-75.000000, -793.000000)" fill-rule="nonzero">
            <g id="Group" transform="translate(75.000000, 764.000000)">
                <path d="M132.5,123.5 L135.5,115.5" id="Line-9" stroke="#979797" stroke-linecap="square"></path>
                <path d="M135.5,114.5 L138.5,107.5" id="Line-6" stroke="#979797" stroke-linecap="square"></path>
                <path d="M136.5,115.5 L145.037439,114" id="Line-7" stroke="#979797" stroke-linecap="square"></path>
                <path d="M135.5,115.5 L141.5,123.5" id="Line-8" stroke="#979797" stroke-linecap="square"></path>
                <path d="M0.5,90.5 L7.5,87.5" id="Line-4" stroke="#979797" stroke-linecap="square"></path>
                <path d="M8.5,87.5 L11.5,80.5" id="Line-2" stroke="#979797" stroke-linecap="square"></path>
                <path d="M7.5,87.5 L1.5,81.5" id="Line-3" stroke="#979797" stroke-linecap="square"></path>
                <path d="M107.5,101.5 L134.5,114.5" id="Line" stroke="#979797" stroke-linecap="square"></path>
                <path d="M8.5,88.5 L35.5,101.5" id="Line" stroke="#979797" stroke-linecap="square"></path>
                <ellipse id="Oval-3" stroke="#979797" fill="#FFFFFF" cx="71.5" cy="185" rx="46.5" ry="39"></ellipse>
                <ellipse id="Oval" stroke="#979797" fill="#FFFFFF" cx="71.5" cy="54" rx="25.5" ry="24"></ellipse>
                <circle id="Oval-4" fill="#000000" cx="87.5" cy="57.5" r="1.5"></circle>
                <circle id="Oval-4" fill="#000000" cx="79.5" cy="62.5" r="1.5"></circle>
                <circle id="Oval-4" fill="#000000" cx="71.5" cy="64.5" r="1.5"></circle>
                <circle id="Oval-4" fill="#000000" cx="62.5" cy="62.5" r="1.5"></circle>
                <circle id="Oval-4" fill="#000000" cx="54.5" cy="58.5" r="1.5"></circle>
                <circle id="Oval-4" fill="#000000" cx="79.5" cy="43.5" r="2.5"></circle>
                <ellipse id="Oval-2" stroke="#979797" fill="#FFFFFF" cx="71.5" cy="112" rx="38.5" ry="34"></ellipse>
                <circle id="Oval-4" fill="#000000" cx="71.5" cy="130.5" r="2.5"></circle>
                <circle id="Oval-4" fill="#000000" cx="71.5" cy="112.5" r="2.5"></circle>
                <circle id="Oval-4" fill="#000000" cx="71.5" cy="93.5" r="2.5"></circle>
                <circle id="Oval-4" fill="#000000" cx="64.5" cy="43.5" r="2.5"></circle>
                <path d="M5.5,95.5 L8.5,87.5" id="Line-5" stroke="#979797" stroke-linecap="square"></path>
                <polygon id="Path" fill="#FFA500" transform="translate(74.500000, 52.000000) rotate(90.000000) translate(-74.500000, -52.000000) " points="74.5 47.5 76.5 56.5 72.5 56.5"></polygon>
            </g>
        </g>
    </g>
</svg>