<?xml version="1.0" encoding="UTF-8"?>
<svg width="386px" height="424px" viewBox="0 0 386 424" version="1.1" xmlns="http://www.w3.org/2000/svg" xmlns:xlink="http://www.w3.org/1999/xlink">
    <!-- Generator: Sketch 52.1 (67048) - http://www.bohemiancoding.com/sketch -->
    <title>Group</title>
    <desc>Created with Sketch.</desc>
    <defs>
        <filter x="-3.2%" y="-4.6%" width="106.3%" height="109.2%" filterUnits="objectBoundingBox" id="filter-1">
            <feOffset dx="0" dy="2" in="SourceAlpha" result="shadowOffsetOuter1"></feOffset>
            <feGaussianBlur stdDeviation="2" in="shadowOffsetOuter1" result="shadowBlurOuter1"></feGaussianBlur>
            <feColorMatrix values="0 0 0 0 0   0 0 0 0 0   0 0 0 0 0  0 0 0 0.5 0" type="matrix" in="shadowBlurOuter1" result="shadowMatrixOuter1"></feColorMatrix>
            <feMerge>
                <feMergeNode in="shadowMatrixOuter1"></feMergeNode>
                <feMergeNode in="SourceGraphic"></feMergeNode>
            </feMerge>
        </filter>
        <filter x="-22.6%" y="-21.4%" width="145.3%" height="142.9%" filterUnits="objectBoundingBox" id="filter-2">
            <feOffset dx="0" dy="2" in="SourceAlpha" result="shadowOffsetOuter1"></feOffset>
            <feGaussianBlur stdDeviation="2" in="shadowOffsetOuter1" result="shadowBlurOuter1"></feGaussianBlur>
            <feColorMatrix values="0 0 0 0 0   0 0 0 0 0   0 0 0 0 0  0 0 0 0.5 0" type="matrix" in="shadowBlurOuter1" result="shadowMatrixOuter1"></feColorMatrix>
            <feMerge>
                <feMergeNode in="shadowMatrixOuter1"></feMergeNode>
                <feMergeNode in="SourceGraphic"></feMergeNode>
            </feMerge>
        </filter>
        <filter x="-22.6%" y="-21.4%" width="145.3%" height="142.9%" filterUnits="objectBoundingBox" id="filter-3">
            <feOffset dx="0" dy="2" in="SourceAlpha" result="shadowOffsetOuter1"></feOffset>
            <feGaussianBlur stdDeviation="2" in="shadowOffsetOuter1" result="shadowBlurOuter1"></feGaussianBlur>
            <feColorMatrix values="0 0 0 0 0   0 0 0 0 0   0 0 0 0 0  0 0 0 0.5 0" type="matrix" in="shadowBlurOuter1" result="shadowMatrixOuter1"></feColorMatrix>
            <feMerge>
                <feMergeNode in="shadowMatrixOuter1"></feMergeNode>
                <feMergeNode in="SourceGraphic"></feMergeNode>
            </feMerge>
        </filter>
        <filter x="-22.6%" y="-21.4%" width="145.3%" height="142.9%" filterUnits="objectBoundingBox" id="filter-4">
            <feOffset dx="0" dy="2" in="SourceAlpha" result="shadowOffsetOuter1"></feOffset>
            <feGaussianBlur stdDeviation="2" in="shadowOffsetOuter1" result="shadowBlurOuter1"></feGaussianBlur>
            <feColorMatrix values="0 0 0 0 0   0 0 0 0 0   0 0 0 0 0  0 0 0 0.5 0" type="matrix" in="shadowBlurOuter1" result="shadowMatrixOuter1"></feColorMatrix>
            <feMerge>
                <feMergeNode in="shadowMatrixOuter1"></feMergeNode>
                <feMergeNode in="SourceGraphic"></feMergeNode>
            </feMerge>
        </filter>
        <filter x="-22.6%" y="-21.4%" width="145.3%" height="142.9%" filterUnits="objectBoundingBox" id="filter-5">
            <feOffset dx="0" dy="2" in="SourceAlpha" result="shadowOffsetOuter1"></feOffset>
            <feGaussianBlur stdDeviation="2" in="shadowOffsetOuter1" result="shadowBlurOuter1"></feGaussianBlur>
            <feColorMatrix values="0 0 0 0 0   0 0 0 0 0   0 0 0 0 0  0 0 0 0.5 0" type="matrix" in="shadowBlurOuter1" result="shadowMatrixOuter1"></feColorMatrix>
            <feMerge>
                <feMergeNode in="shadowMatrixOuter1"></feMergeNode>
                <feMergeNode in="SourceGraphic"></feMergeNode>
            </feMerge>
        </filter>
    </defs>
    <g id="Page-1" stroke="none" stroke-width="1" fill="none" fill-rule="evenodd">
        <g id="Desktop" transform="translate(-297.000000, -282.000000)" fill="#FFFFFF">
            <g id="Group" transform="translate(301.000000, 284.000000)">
                <g id="cloud" filter="url(#filter-1)">
                    <path d="M168.75,262 L73.20375,262 C32.83875,262 0,226.593611 0,183.065222 C0,152.833333 18.25875,121.451556 43.42275,108.446167 L47.25,106.473889 L47.25,101.888889 C47.25,100.964611 47.304,100.025778 47.35125,99.0796667 L47.412,97.9152222 L47.331,96.3868889 C47.2905,95.7973889 47.25,95.2078889 47.25,94.6111111 C47.25,66.5261667 68.45175,43.6666667 94.5,43.6666667 C96.58575,43.6666667 98.6445,43.8631667 100.68975,44.1542778 C101.21625,44.2270556 101.74275,44.3216667 102.2625,44.4162778 C104.06475,44.7365 105.84,45.1586111 107.58825,45.7044444 C107.8245,45.7772222 108.0675,45.8281667 108.30375,45.9009444 C110.2275,46.5341111 112.104,47.3346667 113.94,48.2371111 C114.41925,48.47 114.885,48.7247222 115.3575,48.9721667 C116.9775,49.8382222 118.56375,50.7843333 120.096,51.8541667 C133.10325,60.9368333 141.75,76.6932222 141.75,94.6111111 C141.75,98.6357222 144.76725,101.888889 148.5,101.888889 C152.23275,101.888889 155.25,98.6357222 155.25,94.6111111 C155.25,74.5681111 146.8395,56.6283889 133.65,44.6055 C153.00225,17.3138333 184.869,0 216.57375,0 C268.8525,0 312.2685,44.6491667 316.79775,101.073778 C309.89925,100.549778 299.57175,100.2805 289.2375,101.976222 C285.552,102.580278 283.02075,106.291944 283.581,110.265611 C284.08725,113.868111 286.96275,116.451722 290.24325,116.451722 C290.58075,116.451722 290.925,116.422611 291.2625,116.364389 C306.29475,113.911778 321.9615,116.211556 322.8795,116.349833 C354.3075,122.790667 378,154.005056 378,189.018444 C378,229.257278 347.63175,262 310.311,262 L222.75,262 L168.75,262 Z" id="Path"></path>
                </g>
                <g id="snowflake" filter="url(#filter-2)" transform="translate(25.000000, 294.000000)" fill-rule="nonzero">
                    <path d="M52.3654996,40.4366216 L47.8792979,38.0517191 L50.3323124,36.7429131 C50.9322957,36.4227522 51.1381881,35.7157301 50.7907447,35.1628596 C50.4416928,34.6099891 49.674422,34.4232286 49.0744387,34.7433895 L45.3667675,36.7147508 L42.3169867,35.0902305 L49.6132977,31.2097615 C50.2116724,30.8896006 50.4175648,30.185543 50.0717299,29.6297081 C49.722678,29.079802 48.9537987,28.8871126 48.3570325,29.210238 L39.8028479,33.7562267 L37.8114826,32.6934703 C38.5111949,31.2646039 38.9117199,29.681586 38.9117199,28.0140812 C38.9117199,26.3421296 38.5111949,24.7620762 37.809874,23.3287631 L39.8012393,22.2674889 L48.355424,26.8179244 C48.5532737,26.9231624 48.7688172,26.9750404 48.9843608,26.9750404 C49.4202736,26.9750404 49.8417095,26.7660464 50.0733384,26.3954898 C50.4191733,25.8426193 50.2132809,25.134115 49.6149062,24.8154363 L42.3153782,20.9290384 L45.368376,19.3060004 L49.0792643,21.2818083 C49.277114,21.3870464 49.4942662,21.4389243 49.7082012,21.4389243 C50.1425054,21.4389243 50.5639414,21.2299304 50.7971788,20.8593738 C51.1446222,20.3065033 50.9387298,19.5965168 50.3387466,19.2778381 L47.8841235,17.9705143 L52.3687167,15.5826474 C52.9686999,15.2624864 53.1745923,14.5539822 52.8271489,14.0025939 C52.4797055,13.4512056 51.7092177,13.2614806 51.1124515,13.5816416 L46.6294668,15.9680263 L46.6294668,13.3593076 C46.6294668,12.720468 46.0648713,12.2016887 45.3732016,12.2016887 C44.6783149,12.2016887 44.1169365,12.720468 44.1169365,13.3593076 L44.118545,17.3064768 L41.0687642,18.9295148 L41.0703728,11.170059 C41.0703728,10.5297372 40.5089943,10.0124401 39.8141076,10.0124401 C39.1208294,10.0124401 38.5578424,10.5312194 38.5578424,11.170059 L38.5562339,20.2694476 L36.5503918,21.3292396 C34.5252473,18.7516477 31.3725203,16.9729758 27.7565355,16.6350282 L27.7565355,14.5213732 L36.3075031,9.97093777 C36.9074864,9.65225907 37.1133787,8.9437548 36.7659354,8.39088431 C36.418492,7.83653159 35.6496127,7.64828882 35.051238,7.96844975 L27.7565355,11.8533654 L27.7565355,8.6087716 L31.4658153,6.63592811 C32.0674071,6.31576718 32.2700824,5.60726291 31.9242475,5.05587465 C31.5751956,4.50448638 30.8063163,4.31179693 30.2095501,4.63344009 L27.7565355,5.9363172 L27.7565355,1.15761891 C27.754927,0.518779281 27.1919401,0 26.4986618,0 C25.8053836,0 25.2423967,0.518779281 25.2423967,1.15761891 L25.2423967,5.93187052 L22.7909906,4.62602896 C22.1893988,4.30586803 21.422128,4.49559302 21.0746847,5.04698129 C20.7272413,5.59836955 20.9331336,6.30687383 21.5331169,6.62703475 L25.2423967,8.6028427 L25.2423967,11.8459543 L17.9460857,7.96400307 C17.347711,7.64532437 16.5772231,7.83356714 16.2313883,8.38791985 C15.8839449,8.94079034 16.0914458,9.64929462 16.6898205,9.96797332 L25.2423967,14.5169265 L25.2423967,16.6320637 C21.6264119,16.9685292 18.4736849,18.7486832 16.4485404,21.3262751 L14.4443069,20.2620365 L14.4443069,11.1596834 C14.4443069,10.5208438 13.8813199,10.0020645 13.1880417,10.0020645 C12.4947635,10.0020645 11.9317765,10.5208438 11.9317765,11.1596834 L11.9317765,18.9221037 L8.88521281,17.2990657 L8.88360427,13.348932 C8.88360427,12.7100924 8.32061732,12.1913131 7.6273391,12.1913131 C6.93406087,12.1913131 6.37107392,12.7100924 6.37107392,13.348932 L6.37107392,15.9576507 L1.88487215,13.5742304 C1.28488891,13.2540695 0.516009584,13.4437945 0.168566206,13.9951828 C-0.178877172,14.546571 0.0286237346,15.2565575 0.626998441,15.573754 L5.11320021,17.9631031 L2.66018562,19.2674625 C2.05859384,19.5876234 1.85431,20.2961277 2.20014485,20.8489982 C2.4333823,21.2195548 2.85642678,21.4285487 3.28912247,21.4285487 C3.50144898,21.4285487 3.71860109,21.3796353 3.91805933,21.2714327 L7.62573056,19.3000715 L10.6755113,20.9231095 L3.37759185,24.8050607 C2.77600008,25.1252217 2.57171624,25.8337259 2.91915962,26.3865964 C3.15239707,26.7571531 3.57383302,26.966147 4.00813724,26.966147 C4.22046375,26.966147 4.43600733,26.9157513 4.6370741,26.809031 L13.1880417,22.2585956 L15.1874496,23.321352 C14.4861287,24.7531828 14.0888208,26.3362007 14.0888208,28.0051878 C14.0888208,29.6771393 14.4877373,31.2512639 15.1874496,32.6845769 L13.1912587,33.7473333 L4.63385703,29.204309 C4.03387379,28.8841481 3.26499446,29.0738731 2.91915962,29.6252614 C2.57171624,30.1796141 2.78082568,30.8881184 3.38080892,31.2067971 L10.6771199,35.0857839 L7.62573056,36.7117863 L3.91966786,34.7359784 C3.31968462,34.4202642 2.55080529,34.6070247 2.20336192,35.158413 C1.85591854,35.7112834 2.06181091,36.42127 2.66179415,36.7399487 L5.11480874,38.0472724 L0.631824044,40.4306927 C0.0302322688,40.7508536 -0.174051569,41.4578757 0.173391809,42.0092639 C0.406629262,42.3798205 0.828065211,42.5888145 1.26236943,42.5888145 C1.47469594,42.5888145 1.69023952,42.5413832 1.89130629,42.4302162 L6.37750806,40.0453138 L6.37911659,42.6569969 C6.37911659,43.2973188 6.94210354,43.8146158 7.63538177,43.8146158 C8.32865999,43.8146158 8.89164694,43.2958365 8.89164694,42.6569969 L8.88842988,38.7068632 L11.9414277,37.0838252 L11.9398192,44.8492099 C11.9398192,45.4880495 12.5011976,46.0068288 13.1960843,46.0068288 C13.8909711,46.0068288 14.4523495,45.4865673 14.4523495,44.8492099 L14.4555666,35.7438924 L16.4549746,34.681136 C18.4785105,37.2602102 21.632846,39.0418464 25.2504393,39.3768296 L25.2504393,41.4904846 L16.7010803,46.0394378 C16.0994885,46.3595987 15.8952047,47.0666208 16.2410395,47.6194913 C16.5884829,48.173844 17.3573622,48.363569 17.9573455,48.0434081 L25.2504393,44.1599746 L25.2504393,47.4045684 L21.5411596,49.3759297 C20.9395678,49.6960906 20.7352839,50.4045949 21.0827273,50.9589476 C21.4317792,51.5088537 22.19905,51.7015431 22.7974247,51.3798999 L25.2504393,50.0710939 L25.2504393,54.8423811 C25.2504393,55.4827029 25.8134263,56 26.5067045,56 C27.1999827,56 27.7629697,55.4812207 27.7629697,54.8423811 L27.7629697,50.0681295 L30.2208099,51.3798999 C30.417051,51.4821736 30.6342032,51.537016 30.8497467,51.537016 C31.284051,51.537016 31.7054869,51.3265398 31.9387244,50.9574654 C32.2861677,50.4031127 32.0786668,49.6931262 31.4802921,49.3744475 L27.7661867,47.4001218 L27.7661867,44.1570101 L35.0624977,48.0404436 C35.2603474,48.1427172 35.4774995,48.1945952 35.6914345,48.1945952 C36.1273473,48.1945952 36.5487833,47.9856012 36.7804122,47.6150446 C37.1278555,47.0621741 36.9235717,46.3536698 36.3219799,46.0349911 L27.7694038,41.486038 L27.7694038,39.3723829 C31.3886057,39.0373998 34.5397241,37.2587279 36.5664771,34.6766893 L38.5674936,35.7394458 L38.5674936,44.8447632 C38.5674936,45.4836029 39.1304806,46.0023821 39.8237588,46.0023821 C40.5154285,46.0023821 41.080024,45.4821206 41.080024,44.8447632 L41.080024,37.0793785 L44.1265877,38.7024166 L44.1281962,42.6495858 C44.1281962,43.2899076 44.6927917,43.8072047 45.3844614,43.8072047 C46.0793481,43.8072047 46.6407266,43.2884254 46.6407266,42.6495858 L46.6407266,40.0408671 L51.1253198,42.428734 C51.324778,42.5339721 51.5403216,42.5873323 51.7542566,42.5873323 C52.1901694,42.5873323 52.6116053,42.3783383 52.8448428,42.0077817 C53.1729838,41.4638046 52.9654829,40.7567825 52.3654996,40.4366216 Z M27.7501014,37.0541807 C27.3383167,37.1016119 26.9200978,37.1357031 26.4938362,37.1357031 C26.0659661,37.1357031 25.6493558,37.1045764 25.2375711,37.0541807 C22.5497105,36.7369842 20.2012506,35.4252137 18.6313213,33.5309282 C18.1230245,32.9202509 17.6919373,32.253249 17.3637964,31.5314047 C16.8683678,30.4493793 16.594917,29.2576692 16.594917,28.0125989 C16.594917,26.7615997 16.8699764,25.5743363 17.3654049,24.4923109 C17.6935459,23.7719489 18.1262415,23.1064292 18.6345383,22.4913052 C20.2044677,20.5970197 22.5529275,19.2882137 25.2391796,18.9710172 C25.6525729,18.9235859 26.0707917,18.8880125 26.4954448,18.8880125 C26.9200978,18.8880125 27.3383167,18.9206215 27.7517099,18.9710172 C30.437962,19.2867314 32.7880304,20.5999841 34.3579597,22.4898229 C34.864648,23.1019825 35.3005607,23.7704666 35.6270932,24.4893465 C36.1209132,25.5728541 36.3959725,26.7675287 36.3959725,28.0125989 C36.3959725,29.2606337 36.1209132,30.4493793 35.6287017,31.5343691 C35.3005607,32.2517668 34.8678651,32.9187687 34.3595683,33.5338927 C32.7896389,35.4252137 30.4395705,36.7369842 27.7501014,37.0541807 Z" id="Shape"></path>
                </g>
                <g id="snowflake-copy-3" filter="url(#filter-3)" transform="translate(270.000000, 360.000000)" fill-rule="nonzero">
                    <path d="M52.3654996,40.4366216 L47.8792979,38.0517191 L50.3323124,36.7429131 C50.9322957,36.4227522 51.1381881,35.7157301 50.7907447,35.1628596 C50.4416928,34.6099891 49.674422,34.4232286 49.0744387,34.7433895 L45.3667675,36.7147508 L42.3169867,35.0902305 L49.6132977,31.2097615 C50.2116724,30.8896006 50.4175648,30.185543 50.0717299,29.6297081 C49.722678,29.079802 48.9537987,28.8871126 48.3570325,29.210238 L39.8028479,33.7562267 L37.8114826,32.6934703 C38.5111949,31.2646039 38.9117199,29.681586 38.9117199,28.0140812 C38.9117199,26.3421296 38.5111949,24.7620762 37.809874,23.3287631 L39.8012393,22.2674889 L48.355424,26.8179244 C48.5532737,26.9231624 48.7688172,26.9750404 48.9843608,26.9750404 C49.4202736,26.9750404 49.8417095,26.7660464 50.0733384,26.3954898 C50.4191733,25.8426193 50.2132809,25.134115 49.6149062,24.8154363 L42.3153782,20.9290384 L45.368376,19.3060004 L49.0792643,21.2818083 C49.277114,21.3870464 49.4942662,21.4389243 49.7082012,21.4389243 C50.1425054,21.4389243 50.5639414,21.2299304 50.7971788,20.8593738 C51.1446222,20.3065033 50.9387298,19.5965168 50.3387466,19.2778381 L47.8841235,17.9705143 L52.3687167,15.5826474 C52.9686999,15.2624864 53.1745923,14.5539822 52.8271489,14.0025939 C52.4797055,13.4512056 51.7092177,13.2614806 51.1124515,13.5816416 L46.6294668,15.9680263 L46.6294668,13.3593076 C46.6294668,12.720468 46.0648713,12.2016887 45.3732016,12.2016887 C44.6783149,12.2016887 44.1169365,12.720468 44.1169365,13.3593076 L44.118545,17.3064768 L41.0687642,18.9295148 L41.0703728,11.170059 C41.0703728,10.5297372 40.5089943,10.0124401 39.8141076,10.0124401 C39.1208294,10.0124401 38.5578424,10.5312194 38.5578424,11.170059 L38.5562339,20.2694476 L36.5503918,21.3292396 C34.5252473,18.7516477 31.3725203,16.9729758 27.7565355,16.6350282 L27.7565355,14.5213732 L36.3075031,9.97093777 C36.9074864,9.65225907 37.1133787,8.9437548 36.7659354,8.39088431 C36.418492,7.83653159 35.6496127,7.64828882 35.051238,7.96844975 L27.7565355,11.8533654 L27.7565355,8.6087716 L31.4658153,6.63592811 C32.0674071,6.31576718 32.2700824,5.60726291 31.9242475,5.05587465 C31.5751956,4.50448638 30.8063163,4.31179693 30.2095501,4.63344009 L27.7565355,5.9363172 L27.7565355,1.15761891 C27.754927,0.518779281 27.1919401,0 26.4986618,0 C25.8053836,0 25.2423967,0.518779281 25.2423967,1.15761891 L25.2423967,5.93187052 L22.7909906,4.62602896 C22.1893988,4.30586803 21.422128,4.49559302 21.0746847,5.04698129 C20.7272413,5.59836955 20.9331336,6.30687383 21.5331169,6.62703475 L25.2423967,8.6028427 L25.2423967,11.8459543 L17.9460857,7.96400307 C17.347711,7.64532437 16.5772231,7.83356714 16.2313883,8.38791985 C15.8839449,8.94079034 16.0914458,9.64929462 16.6898205,9.96797332 L25.2423967,14.5169265 L25.2423967,16.6320637 C21.6264119,16.9685292 18.4736849,18.7486832 16.4485404,21.3262751 L14.4443069,20.2620365 L14.4443069,11.1596834 C14.4443069,10.5208438 13.8813199,10.0020645 13.1880417,10.0020645 C12.4947635,10.0020645 11.9317765,10.5208438 11.9317765,11.1596834 L11.9317765,18.9221037 L8.88521281,17.2990657 L8.88360427,13.348932 C8.88360427,12.7100924 8.32061732,12.1913131 7.6273391,12.1913131 C6.93406087,12.1913131 6.37107392,12.7100924 6.37107392,13.348932 L6.37107392,15.9576507 L1.88487215,13.5742304 C1.28488891,13.2540695 0.516009584,13.4437945 0.168566206,13.9951828 C-0.178877172,14.546571 0.0286237346,15.2565575 0.626998441,15.573754 L5.11320021,17.9631031 L2.66018562,19.2674625 C2.05859384,19.5876234 1.85431,20.2961277 2.20014485,20.8489982 C2.4333823,21.2195548 2.85642678,21.4285487 3.28912247,21.4285487 C3.50144898,21.4285487 3.71860109,21.3796353 3.91805933,21.2714327 L7.62573056,19.3000715 L10.6755113,20.9231095 L3.37759185,24.8050607 C2.77600008,25.1252217 2.57171624,25.8337259 2.91915962,26.3865964 C3.15239707,26.7571531 3.57383302,26.966147 4.00813724,26.966147 C4.22046375,26.966147 4.43600733,26.9157513 4.6370741,26.809031 L13.1880417,22.2585956 L15.1874496,23.321352 C14.4861287,24.7531828 14.0888208,26.3362007 14.0888208,28.0051878 C14.0888208,29.6771393 14.4877373,31.2512639 15.1874496,32.6845769 L13.1912587,33.7473333 L4.63385703,29.204309 C4.03387379,28.8841481 3.26499446,29.0738731 2.91915962,29.6252614 C2.57171624,30.1796141 2.78082568,30.8881184 3.38080892,31.2067971 L10.6771199,35.0857839 L7.62573056,36.7117863 L3.91966786,34.7359784 C3.31968462,34.4202642 2.55080529,34.6070247 2.20336192,35.158413 C1.85591854,35.7112834 2.06181091,36.42127 2.66179415,36.7399487 L5.11480874,38.0472724 L0.631824044,40.4306927 C0.0302322688,40.7508536 -0.174051569,41.4578757 0.173391809,42.0092639 C0.406629262,42.3798205 0.828065211,42.5888145 1.26236943,42.5888145 C1.47469594,42.5888145 1.69023952,42.5413832 1.89130629,42.4302162 L6.37750806,40.0453138 L6.37911659,42.6569969 C6.37911659,43.2973188 6.94210354,43.8146158 7.63538177,43.8146158 C8.32865999,43.8146158 8.89164694,43.2958365 8.89164694,42.6569969 L8.88842988,38.7068632 L11.9414277,37.0838252 L11.9398192,44.8492099 C11.9398192,45.4880495 12.5011976,46.0068288 13.1960843,46.0068288 C13.8909711,46.0068288 14.4523495,45.4865673 14.4523495,44.8492099 L14.4555666,35.7438924 L16.4549746,34.681136 C18.4785105,37.2602102 21.632846,39.0418464 25.2504393,39.3768296 L25.2504393,41.4904846 L16.7010803,46.0394378 C16.0994885,46.3595987 15.8952047,47.0666208 16.2410395,47.6194913 C16.5884829,48.173844 17.3573622,48.363569 17.9573455,48.0434081 L25.2504393,44.1599746 L25.2504393,47.4045684 L21.5411596,49.3759297 C20.9395678,49.6960906 20.7352839,50.4045949 21.0827273,50.9589476 C21.4317792,51.5088537 22.19905,51.7015431 22.7974247,51.3798999 L25.2504393,50.0710939 L25.2504393,54.8423811 C25.2504393,55.4827029 25.8134263,56 26.5067045,56 C27.1999827,56 27.7629697,55.4812207 27.7629697,54.8423811 L27.7629697,50.0681295 L30.2208099,51.3798999 C30.417051,51.4821736 30.6342032,51.537016 30.8497467,51.537016 C31.284051,51.537016 31.7054869,51.3265398 31.9387244,50.9574654 C32.2861677,50.4031127 32.0786668,49.6931262 31.4802921,49.3744475 L27.7661867,47.4001218 L27.7661867,44.1570101 L35.0624977,48.0404436 C35.2603474,48.1427172 35.4774995,48.1945952 35.6914345,48.1945952 C36.1273473,48.1945952 36.5487833,47.9856012 36.7804122,47.6150446 C37.1278555,47.0621741 36.9235717,46.3536698 36.3219799,46.0349911 L27.7694038,41.486038 L27.7694038,39.3723829 C31.3886057,39.0373998 34.5397241,37.2587279 36.5664771,34.6766893 L38.5674936,35.7394458 L38.5674936,44.8447632 C38.5674936,45.4836029 39.1304806,46.0023821 39.8237588,46.0023821 C40.5154285,46.0023821 41.080024,45.4821206 41.080024,44.8447632 L41.080024,37.0793785 L44.1265877,38.7024166 L44.1281962,42.6495858 C44.1281962,43.2899076 44.6927917,43.8072047 45.3844614,43.8072047 C46.0793481,43.8072047 46.6407266,43.2884254 46.6407266,42.6495858 L46.6407266,40.0408671 L51.1253198,42.428734 C51.324778,42.5339721 51.5403216,42.5873323 51.7542566,42.5873323 C52.1901694,42.5873323 52.6116053,42.3783383 52.8448428,42.0077817 C53.1729838,41.4638046 52.9654829,40.7567825 52.3654996,40.4366216 Z M27.7501014,37.0541807 C27.3383167,37.1016119 26.9200978,37.1357031 26.4938362,37.1357031 C26.0659661,37.1357031 25.6493558,37.1045764 25.2375711,37.0541807 C22.5497105,36.7369842 20.2012506,35.4252137 18.6313213,33.5309282 C18.1230245,32.9202509 17.6919373,32.253249 17.3637964,31.5314047 C16.8683678,30.4493793 16.594917,29.2576692 16.594917,28.0125989 C16.594917,26.7615997 16.8699764,25.5743363 17.3654049,24.4923109 C17.6935459,23.7719489 18.1262415,23.1064292 18.6345383,22.4913052 C20.2044677,20.5970197 22.5529275,19.2882137 25.2391796,18.9710172 C25.6525729,18.9235859 26.0707917,18.8880125 26.4954448,18.8880125 C26.9200978,18.8880125 27.3383167,18.9206215 27.7517099,18.9710172 C30.437962,19.2867314 32.7880304,20.5999841 34.3579597,22.4898229 C34.864648,23.1019825 35.3005607,23.7704666 35.6270932,24.4893465 C36.1209132,25.5728541 36.3959725,26.7675287 36.3959725,28.0125989 C36.3959725,29.2606337 36.1209132,30.4493793 35.6287017,31.5343691 C35.3005607,32.2517668 34.8678651,32.9187687 34.3595683,33.5338927 C32.7896389,35.4252137 30.4395705,36.7369842 27.7501014,37.0541807 Z" id="Shape"></path>
                </g>
                <g id="snowflake-copy-2" filter="url(#filter-4)" transform="translate(189.000000, 294.000000)" fill-rule="nonzero">
                    <path d="M52.3654996,40.4366216 L47.8792979,38.0517191 L50.3323124,36.7429131 C50.9322957,36.4227522 51.1381881,35.7157301 50.7907447,35.1628596 C50.4416928,34.6099891 49.674422,34.4232286 49.0744387,34.7433895 L45.3667675,36.7147508 L42.3169867,35.0902305 L49.6132977,31.2097615 C50.2116724,30.8896006 50.4175648,30.185543 50.0717299,29.6297081 C49.722678,29.079802 48.9537987,28.8871126 48.3570325,29.210238 L39.8028479,33.7562267 L37.8114826,32.6934703 C38.5111949,31.2646039 38.9117199,29.681586 38.9117199,28.0140812 C38.9117199,26.3421296 38.5111949,24.7620762 37.809874,23.3287631 L39.8012393,22.2674889 L48.355424,26.8179244 C48.5532737,26.9231624 48.7688172,26.9750404 48.9843608,26.9750404 C49.4202736,26.9750404 49.8417095,26.7660464 50.0733384,26.3954898 C50.4191733,25.8426193 50.2132809,25.134115 49.6149062,24.8154363 L42.3153782,20.9290384 L45.368376,19.3060004 L49.0792643,21.2818083 C49.277114,21.3870464 49.4942662,21.4389243 49.7082012,21.4389243 C50.1425054,21.4389243 50.5639414,21.2299304 50.7971788,20.8593738 C51.1446222,20.3065033 50.9387298,19.5965168 50.3387466,19.2778381 L47.8841235,17.9705143 L52.3687167,15.5826474 C52.9686999,15.2624864 53.1745923,14.5539822 52.8271489,14.0025939 C52.4797055,13.4512056 51.7092177,13.2614806 51.1124515,13.5816416 L46.6294668,15.9680263 L46.6294668,13.3593076 C46.6294668,12.720468 46.0648713,12.2016887 45.3732016,12.2016887 C44.6783149,12.2016887 44.1169365,12.720468 44.1169365,13.3593076 L44.118545,17.3064768 L41.0687642,18.9295148 L41.0703728,11.170059 C41.0703728,10.5297372 40.5089943,10.0124401 39.8141076,10.0124401 C39.1208294,10.0124401 38.5578424,10.5312194 38.5578424,11.170059 L38.5562339,20.2694476 L36.5503918,21.3292396 C34.5252473,18.7516477 31.3725203,16.9729758 27.7565355,16.6350282 L27.7565355,14.5213732 L36.3075031,9.97093777 C36.9074864,9.65225907 37.1133787,8.9437548 36.7659354,8.39088431 C36.418492,7.83653159 35.6496127,7.64828882 35.051238,7.96844975 L27.7565355,11.8533654 L27.7565355,8.6087716 L31.4658153,6.63592811 C32.0674071,6.31576718 32.2700824,5.60726291 31.9242475,5.05587465 C31.5751956,4.50448638 30.8063163,4.31179693 30.2095501,4.63344009 L27.7565355,5.9363172 L27.7565355,1.15761891 C27.754927,0.518779281 27.1919401,0 26.4986618,0 C25.8053836,0 25.2423967,0.518779281 25.2423967,1.15761891 L25.2423967,5.93187052 L22.7909906,4.62602896 C22.1893988,4.30586803 21.422128,4.49559302 21.0746847,5.04698129 C20.7272413,5.59836955 20.9331336,6.30687383 21.5331169,6.62703475 L25.2423967,8.6028427 L25.2423967,11.8459543 L17.9460857,7.96400307 C17.347711,7.64532437 16.5772231,7.83356714 16.2313883,8.38791985 C15.8839449,8.94079034 16.0914458,9.64929462 16.6898205,9.96797332 L25.2423967,14.5169265 L25.2423967,16.6320637 C21.6264119,16.9685292 18.4736849,18.7486832 16.4485404,21.3262751 L14.4443069,20.2620365 L14.4443069,11.1596834 C14.4443069,10.5208438 13.8813199,10.0020645 13.1880417,10.0020645 C12.4947635,10.0020645 11.9317765,10.5208438 11.9317765,11.1596834 L11.9317765,18.9221037 L8.88521281,17.2990657 L8.88360427,13.348932 C8.88360427,12.7100924 8.32061732,12.1913131 7.6273391,12.1913131 C6.93406087,12.1913131 6.37107392,12.7100924 6.37107392,13.348932 L6.37107392,15.9576507 L1.88487215,13.5742304 C1.28488891,13.2540695 0.516009584,13.4437945 0.168566206,13.9951828 C-0.178877172,14.546571 0.0286237346,15.2565575 0.626998441,15.573754 L5.11320021,17.9631031 L2.66018562,19.2674625 C2.05859384,19.5876234 1.85431,20.2961277 2.20014485,20.8489982 C2.4333823,21.2195548 2.85642678,21.4285487 3.28912247,21.4285487 C3.50144898,21.4285487 3.71860109,21.3796353 3.91805933,21.2714327 L7.62573056,19.3000715 L10.6755113,20.9231095 L3.37759185,24.8050607 C2.77600008,25.1252217 2.57171624,25.8337259 2.91915962,26.3865964 C3.15239707,26.7571531 3.57383302,26.966147 4.00813724,26.966147 C4.22046375,26.966147 4.43600733,26.9157513 4.6370741,26.809031 L13.1880417,22.2585956 L15.1874496,23.321352 C14.4861287,24.7531828 14.0888208,26.3362007 14.0888208,28.0051878 C14.0888208,29.6771393 14.4877373,31.2512639 15.1874496,32.6845769 L13.1912587,33.7473333 L4.63385703,29.204309 C4.03387379,28.8841481 3.26499446,29.0738731 2.91915962,29.6252614 C2.57171624,30.1796141 2.78082568,30.8881184 3.38080892,31.2067971 L10.6771199,35.0857839 L7.62573056,36.7117863 L3.91966786,34.7359784 C3.31968462,34.4202642 2.55080529,34.6070247 2.20336192,35.158413 C1.85591854,35.7112834 2.06181091,36.42127 2.66179415,36.7399487 L5.11480874,38.0472724 L0.631824044,40.4306927 C0.0302322688,40.7508536 -0.174051569,41.4578757 0.173391809,42.0092639 C0.406629262,42.3798205 0.828065211,42.5888145 1.26236943,42.5888145 C1.47469594,42.5888145 1.69023952,42.5413832 1.89130629,42.4302162 L6.37750806,40.0453138 L6.37911659,42.6569969 C6.37911659,43.2973188 6.94210354,43.8146158 7.63538177,43.8146158 C8.32865999,43.8146158 8.89164694,43.2958365 8.89164694,42.6569969 L8.88842988,38.7068632 L11.9414277,37.0838252 L11.9398192,44.8492099 C11.9398192,45.4880495 12.5011976,46.0068288 13.1960843,46.0068288 C13.8909711,46.0068288 14.4523495,45.4865673 14.4523495,44.8492099 L14.4555666,35.7438924 L16.4549746,34.681136 C18.4785105,37.2602102 21.632846,39.0418464 25.2504393,39.3768296 L25.2504393,41.4904846 L16.7010803,46.0394378 C16.0994885,46.3595987 15.8952047,47.0666208 16.2410395,47.6194913 C16.5884829,48.173844 17.3573622,48.363569 17.9573455,48.0434081 L25.2504393,44.1599746 L25.2504393,47.4045684 L21.5411596,49.3759297 C20.9395678,49.6960906 20.7352839,50.4045949 21.0827273,50.9589476 C21.4317792,51.5088537 22.19905,51.7015431 22.7974247,51.3798999 L25.2504393,50.0710939 L25.2504393,54.8423811 C25.2504393,55.4827029 25.8134263,56 26.5067045,56 C27.1999827,56 27.7629697,55.4812207 27.7629697,54.8423811 L27.7629697,50.0681295 L30.2208099,51.3798999 C30.417051,51.4821736 30.6342032,51.537016 30.8497467,51.537016 C31.284051,51.537016 31.7054869,51.3265398 31.9387244,50.9574654 C32.2861677,50.4031127 32.0786668,49.6931262 31.4802921,49.3744475 L27.7661867,47.4001218 L27.7661867,44.1570101 L35.0624977,48.0404436 C35.2603474,48.1427172 35.4774995,48.1945952 35.6914345,48.1945952 C36.1273473,48.1945952 36.5487833,47.9856012 36.7804122,47.6150446 C37.1278555,47.0621741 36.9235717,46.3536698 36.3219799,46.0349911 L27.7694038,41.486038 L27.7694038,39.3723829 C31.3886057,39.0373998 34.5397241,37.2587279 36.5664771,34.6766893 L38.5674936,35.7394458 L38.5674936,44.8447632 C38.5674936,45.4836029 39.1304806,46.0023821 39.8237588,46.0023821 C40.5154285,46.0023821 41.080024,45.4821206 41.080024,44.8447632 L41.080024,37.0793785 L44.1265877,38.7024166 L44.1281962,42.6495858 C44.1281962,43.2899076 44.6927917,43.8072047 45.3844614,43.8072047 C46.0793481,43.8072047 46.6407266,43.2884254 46.6407266,42.6495858 L46.6407266,40.0408671 L51.1253198,42.428734 C51.324778,42.5339721 51.5403216,42.5873323 51.7542566,42.5873323 C52.1901694,42.5873323 52.6116053,42.3783383 52.8448428,42.0077817 C53.1729838,41.4638046 52.9654829,40.7567825 52.3654996,40.4366216 Z M27.7501014,37.0541807 C27.3383167,37.1016119 26.9200978,37.1357031 26.4938362,37.1357031 C26.0659661,37.1357031 25.6493558,37.1045764 25.2375711,37.0541807 C22.5497105,36.7369842 20.2012506,35.4252137 18.6313213,33.5309282 C18.1230245,32.9202509 17.6919373,32.253249 17.3637964,31.5314047 C16.8683678,30.4493793 16.594917,29.2576692 16.594917,28.0125989 C16.594917,26.7615997 16.8699764,25.5743363 17.3654049,24.4923109 C17.6935459,23.7719489 18.1262415,23.1064292 18.6345383,22.4913052 C20.2044677,20.5970197 22.5529275,19.2882137 25.2391796,18.9710172 C25.6525729,18.9235859 26.0707917,18.8880125 26.4954448,18.8880125 C26.9200978,18.8880125 27.3383167,18.9206215 27.7517099,18.9710172 C30.437962,19.2867314 32.7880304,20.5999841 34.3579597,22.4898229 C34.864648,23.1019825 35.3005607,23.7704666 35.6270932,24.4893465 C36.1209132,25.5728541 36.3959725,26.7675287 36.3959725,28.0125989 C36.3959725,29.2606337 36.1209132,30.4493793 35.6287017,31.5343691 C35.3005607,32.2517668 34.8678651,32.9187687 34.3595683,33.5338927 C32.7896389,35.4252137 30.4395705,36.7369842 27.7501014,37.0541807 Z" id="Shape"></path>
                </g>
                <g id="snowflake-copy" filter="url(#filter-5)" transform="translate(94.000000, 360.000000)" fill-rule="nonzero">
                    <path d="M52.3654996,40.4366216 L47.8792979,38.0517191 L50.3323124,36.7429131 C50.9322957,36.4227522 51.1381881,35.7157301 50.7907447,35.1628596 C50.4416928,34.6099891 49.674422,34.4232286 49.0744387,34.7433895 L45.3667675,36.7147508 L42.3169867,35.0902305 L49.6132977,31.2097615 C50.2116724,30.8896006 50.4175648,30.185543 50.0717299,29.6297081 C49.722678,29.079802 48.9537987,28.8871126 48.3570325,29.210238 L39.8028479,33.7562267 L37.8114826,32.6934703 C38.5111949,31.2646039 38.9117199,29.681586 38.9117199,28.0140812 C38.9117199,26.3421296 38.5111949,24.7620762 37.809874,23.3287631 L39.8012393,22.2674889 L48.355424,26.8179244 C48.5532737,26.9231624 48.7688172,26.9750404 48.9843608,26.9750404 C49.4202736,26.9750404 49.8417095,26.7660464 50.0733384,26.3954898 C50.4191733,25.8426193 50.2132809,25.134115 49.6149062,24.8154363 L42.3153782,20.9290384 L45.368376,19.3060004 L49.0792643,21.2818083 C49.277114,21.3870464 49.4942662,21.4389243 49.7082012,21.4389243 C50.1425054,21.4389243 50.5639414,21.2299304 50.7971788,20.8593738 C51.1446222,20.3065033 50.9387298,19.5965168 50.3387466,19.2778381 L47.8841235,17.9705143 L52.3687167,15.5826474 C52.9686999,15.2624864 53.1745923,14.5539822 52.8271489,14.0025939 C52.4797055,13.4512056 51.7092177,13.2614806 51.1124515,13.5816416 L46.6294668,15.9680263 L46.6294668,13.3593076 C46.6294668,12.720468 46.0648713,12.2016887 45.3732016,12.2016887 C44.6783149,12.2016887 44.1169365,12.720468 44.1169365,13.3593076 L44.118545,17.3064768 L41.0687642,18.9295148 L41.0703728,11.170059 C41.0703728,10.5297372 40.5089943,10.0124401 39.8141076,10.0124401 C39.1208294,10.0124401 38.5578424,10.5312194 38.5578424,11.170059 L38.5562339,20.2694476 L36.5503918,21.3292396 C34.5252473,18.7516477 31.3725203,16.9729758 27.7565355,16.6350282 L27.7565355,14.5213732 L36.3075031,9.97093777 C36.9074864,9.65225907 37.1133787,8.9437548 36.7659354,8.39088431 C36.418492,7.83653159 35.6496127,7.64828882 35.051238,7.96844975 L27.7565355,11.8533654 L27.7565355,8.6087716 L31.4658153,6.63592811 C32.0674071,6.31576718 32.2700824,5.60726291 31.9242475,5.05587465 C31.5751956,4.50448638 30.8063163,4.31179693 30.2095501,4.63344009 L27.7565355,5.9363172 L27.7565355,1.15761891 C27.754927,0.518779281 27.1919401,0 26.4986618,0 C25.8053836,0 25.2423967,0.518779281 25.2423967,1.15761891 L25.2423967,5.93187052 L22.7909906,4.62602896 C22.1893988,4.30586803 21.422128,4.49559302 21.0746847,5.04698129 C20.7272413,5.59836955 20.9331336,6.30687383 21.5331169,6.62703475 L25.2423967,8.6028427 L25.2423967,11.8459543 L17.9460857,7.96400307 C17.347711,7.64532437 16.5772231,7.83356714 16.2313883,8.38791985 C15.8839449,8.94079034 16.0914458,9.64929462 16.6898205,9.96797332 L25.2423967,14.5169265 L25.2423967,16.6320637 C21.6264119,16.9685292 18.4736849,18.7486832 16.4485404,21.3262751 L14.4443069,20.2620365 L14.4443069,11.1596834 C14.4443069,10.5208438 13.8813199,10.0020645 13.1880417,10.0020645 C12.4947635,10.0020645 11.9317765,10.5208438 11.9317765,11.1596834 L11.9317765,18.9221037 L8.88521281,17.2990657 L8.88360427,13.348932 C8.88360427,12.7100924 8.32061732,12.1913131 7.6273391,12.1913131 C6.93406087,12.1913131 6.37107392,12.7100924 6.37107392,13.348932 L6.37107392,15.9576507 L1.88487215,13.5742304 C1.28488891,13.2540695 0.516009584,13.4437945 0.168566206,13.9951828 C-0.178877172,14.546571 0.0286237346,15.2565575 0.626998441,15.573754 L5.11320021,17.9631031 L2.66018562,19.2674625 C2.05859384,19.5876234 1.85431,20.2961277 2.20014485,20.8489982 C2.4333823,21.2195548 2.85642678,21.4285487 3.28912247,21.4285487 C3.50144898,21.4285487 3.71860109,21.3796353 3.91805933,21.2714327 L7.62573056,19.3000715 L10.6755113,20.9231095 L3.37759185,24.8050607 C2.77600008,25.1252217 2.57171624,25.8337259 2.91915962,26.3865964 C3.15239707,26.7571531 3.57383302,26.966147 4.00813724,26.966147 C4.22046375,26.966147 4.43600733,26.9157513 4.6370741,26.809031 L13.1880417,22.2585956 L15.1874496,23.321352 C14.4861287,24.7531828 14.0888208,26.3362007 14.0888208,28.0051878 C14.0888208,29.6771393 14.4877373,31.2512639 15.1874496,32.6845769 L13.1912587,33.7473333 L4.63385703,29.204309 C4.03387379,28.8841481 3.26499446,29.0738731 2.91915962,29.6252614 C2.57171624,30.1796141 2.78082568,30.8881184 3.38080892,31.2067971 L10.6771199,35.0857839 L7.62573056,36.7117863 L3.91966786,34.7359784 C3.31968462,34.4202642 2.55080529,34.6070247 2.20336192,35.158413 C1.85591854,35.7112834 2.06181091,36.42127 2.66179415,36.7399487 L5.11480874,38.0472724 L0.631824044,40.4306927 C0.0302322688,40.7508536 -0.174051569,41.4578757 0.173391809,42.0092639 C0.406629262,42.3798205 0.828065211,42.5888145 1.26236943,42.5888145 C1.47469594,42.5888145 1.69023952,42.5413832 1.89130629,42.4302162 L6.37750806,40.0453138 L6.37911659,42.6569969 C6.37911659,43.2973188 6.94210354,43.8146158 7.63538177,43.8146158 C8.32865999,43.8146158 8.89164694,43.2958365 8.89164694,42.6569969 L8.88842988,38.7068632 L11.9414277,37.0838252 L11.9398192,44.8492099 C11.9398192,45.4880495 12.5011976,46.0068288 13.1960843,46.0068288 C13.8909711,46.0068288 14.4523495,45.4865673 14.4523495,44.8492099 L14.4555666,35.7438924 L16.4549746,34.681136 C18.4785105,37.2602102 21.632846,39.0418464 25.2504393,39.3768296 L25.2504393,41.4904846 L16.7010803,46.0394378 C16.0994885,46.3595987 15.8952047,47.0666208 16.2410395,47.6194913 C16.5884829,48.173844 17.3573622,48.363569 17.9573455,48.0434081 L25.2504393,44.1599746 L25.2504393,47.4045684 L21.5411596,49.3759297 C20.9395678,49.6960906 20.7352839,50.4045949 21.0827273,50.9589476 C21.4317792,51.5088537 22.19905,51.7015431 22.7974247,51.3798999 L25.2504393,50.0710939 L25.2504393,54.8423811 C25.2504393,55.4827029 25.8134263,56 26.5067045,56 C27.1999827,56 27.7629697,55.4812207 27.7629697,54.8423811 L27.7629697,50.0681295 L30.2208099,51.3798999 C30.417051,51.4821736 30.6342032,51.537016 30.8497467,51.537016 C31.284051,51.537016 31.7054869,51.3265398 31.9387244,50.9574654 C32.2861677,50.4031127 32.0786668,49.6931262 31.4802921,49.3744475 L27.7661867,47.4001218 L27.7661867,44.1570101 L35.0624977,48.0404436 C35.2603474,48.1427172 35.4774995,48.1945952 35.6914345,48.1945952 C36.1273473,48.1945952 36.5487833,47.9856012 36.7804122,47.6150446 C37.1278555,47.0621741 36.9235717,46.3536698 36.3219799,46.0349911 L27.7694038,41.486038 L27.7694038,39.3723829 C31.3886057,39.0373998 34.5397241,37.2587279 36.5664771,34.6766893 L38.5674936,35.7394458 L38.5674936,44.8447632 C38.5674936,45.4836029 39.1304806,46.0023821 39.8237588,46.0023821 C40.5154285,46.0023821 41.080024,45.4821206 41.080024,44.8447632 L41.080024,37.0793785 L44.1265877,38.7024166 L44.1281962,42.6495858 C44.1281962,43.2899076 44.6927917,43.8072047 45.3844614,43.8072047 C46.0793481,43.8072047 46.6407266,43.2884254 46.6407266,42.6495858 L46.6407266,40.0408671 L51.1253198,42.428734 C51.324778,42.5339721 51.5403216,42.5873323 51.7542566,42.5873323 C52.1901694,42.5873323 52.6116053,42.3783383 52.8448428,42.0077817 C53.1729838,41.4638046 52.9654829,40.7567825 52.3654996,40.4366216 Z M27.7501014,37.0541807 C27.3383167,37.1016119 26.9200978,37.1357031 26.4938362,37.1357031 C26.0659661,37.1357031 25.6493558,37.1045764 25.2375711,37.0541807 C22.5497105,36.7369842 20.2012506,35.4252137 18.6313213,33.5309282 C18.1230245,32.9202509 17.6919373,32.253249 17.3637964,31.5314047 C16.8683678,30.4493793 16.594917,29.2576692 16.594917,28.0125989 C16.594917,26.7615997 16.8699764,25.5743363 17.3654049,24.4923109 C17.6935459,23.7719489 18.1262415,23.1064292 18.6345383,22.4913052 C20.2044677,20.5970197 22.5529275,19.2882137 25.2391796,18.9710172 C25.6525729,18.9235859 26.0707917,18.8880125 26.4954448,18.8880125 C26.9200978,18.8880125 27.3383167,18.9206215 27.7517099,18.9710172 C30.437962,19.2867314 32.7880304,20.5999841 34.3579597,22.4898229 C34.864648,23.1019825 35.3005607,23.7704666 35.6270932,24.4893465 C36.1209132,25.5728541 36.3959725,26.7675287 36.3959725,28.0125989 C36.3959725,29.2606337 36.1209132,30.4493793 35.6287017,31.5343691 C35.3005607,32.2517668 34.8678651,32.9187687 34.3595683,33.5338927 C32.7896389,35.4252137 30.4395705,36.7369842 27.7501014,37.0541807 Z" id="Shape"></path>
                </g>
            </g>
        </g>
    </g>
</svg>